<?xml version="1.0" standalone="no"?><!DOCTYPE svg PUBLIC "-//W3C//DTD SVG 1.1//EN" "http://www.w3.org/Graphics/SVG/1.1/DTD/svg11.dtd"><svg t="1747300431417" class="icon" viewBox="0 0 1024 1024" version="1.1" xmlns="http://www.w3.org/2000/svg" p-id="6190" xmlns:xlink="http://www.w3.org/1999/xlink" width="128" height="128"><path d="M946.8 578.4c1.7-2 3.5-4 4.8-6.1 1.5-2.3 2.5-4.8 3.6-7.2 0.7-1.6 1.7-3.2 2.2-4.9 1.3-4.2 2-8.5 2-13 0-3.6-0.6-7.2-1.5-10.6-0.3-1.3-0.8-2.7-1.2-4-0.7-1.9-1.6-3.8-2.5-5.7-1.8-3.6-4.2-7.2-7-10.6-0.3-0.3-0.5-0.6-0.7-0.9-11.4-13.2-30.4-25.1-57.3-35.6-2.8-1.1-5.7-2.2-8.6-3.2-4.2-1.5-8.5-3-13-4.5-5.3-1.7-10.7-3.4-16.3-4.9-1.6-0.4-2.9-0.9-4.5-1.4-31-142.2-140-249.3-273.4-274.6 3-6.4 4.7-13.3 4.7-20.5 0-30.8-29.4-55.9-65.5-55.9s-65.5 25.1-65.5 55.9c0 7.3 1.7 14.1 4.7 20.5C318 216.4 209 323.5 178 465.7c-1.7 0.5-3.1 1-4.8 1.4-5.4 1.5-10.7 3.1-15.8 4.8-4.9 1.6-9.5 3.2-13.9 4.8-2.6 1-5.3 1.9-7.8 2.9-27 10.6-46.2 22.4-57.6 35.7-0.2 0.3-0.4 0.6-0.7 0.9-2.9 3.5-5.3 7-7.1 10.7-1 1.9-1.8 3.8-2.5 5.7-0.5 1.3-0.9 2.6-1.2 4-0.9 3.4-1.5 6.9-1.5 10.6 0 4.4 0.7 8.7 1.9 12.8 0.5 1.7 1.5 3.4 2.3 5.1 1 2.3 1.9 4.7 3.3 6.9s3.2 4.2 5 6.3c1.4 1.7 2.6 3.3 4.2 4.9 2.3 2.3 5.2 4.6 8 6.8 1.6 1.2 3 2.5 4.7 3.7 3.4 2.4 7.4 4.8 11.4 7.1 1.6 0.9 3.1 1.8 4.8 2.7 4.6 2.5 9.7 4.8 15.1 7.2 1.5 0.7 3 1.3 4.6 2 5.9 2.4 12.2 4.8 18.9 7.1 1.4 0.5 2.8 1 4.3 1.4 7.1 2.4 14.7 4.7 22.7 6.9 0.6 0.2 1.1 0.3 1.6 0.5C213.6 792 352.1 909.1 512.2 909.1c160.1 0 298.6-117.1 334.2-280.5h0.1c8.8-2.4 16.9-4.9 24.6-7.4 0.9-0.3 1.9-0.6 2.8-0.9 7-2.4 13.5-4.8 19.6-7.4 1.4-0.6 2.9-1.2 4.2-1.8 5.4-2.3 10.5-4.8 15.2-7.2 1.7-0.9 3.4-1.8 5-2.7 4-2.3 7.8-4.6 11.3-7 1.8-1.3 3.4-2.6 5.1-3.9 2.8-2.2 5.5-4.4 7.8-6.7 1.8-1.7 3.2-3.4 4.7-5.2zM512.2 157.2c12.9 0 23 7.2 23 13.4s-10 13.4-23 13.4c-12.9 0-23-7.2-23-13.4s10.1-13.4 23-13.4z m0 70.6c133.4 0 249.7 93.8 287.5 227-93.6-18.6-208.5-25.1-287.5-25.1s-193.9 6.4-287.5 25.1c37.8-133.2 154.1-227 287.5-227z m295 379.8C782.1 747.1 673 850.9 542.1 864.8c-9.3-42.8-19.5-84.1-13.5-125 26.6-7.2 46.3-31.3 46.3-60.3 0-34.6-28.1-62.7-62.7-62.7s-62.7 28.1-62.7 62.7c0 25.5 15.3 47.3 37.1 57.1-5 42.3 3.1 84.8 12.4 129.3-138.1-6.4-255.5-112.9-281.8-258.3l-2.5-13.5-13.3-3.3c-67.4-16.9-88.6-34.5-92.8-41.4-0.6-1-0.9-1.7-0.9-2.2 0-4 16.7-24.3 93.7-43.6l10.4-2.6c67.8-15.7 168.2-28.6 300.4-28.6s232.6 12.9 300.3 28.6l10.5 2.6c77.1 19.3 93.7 39.6 93.7 43.6 0 0.5-0.3 1.3-0.9 2.3-3.7 5.9-19.7 19.6-66.3 34-0.2 0.1-0.3 0.1-0.5 0.2-7.4 2.3-15.6 4.5-24.5 6.8-1.7 0.4-3.3 0.9-5.1 1.3l-9.7 2.4-2.5 13.4z" fill="#EC4899" p-id="6191"></path></svg>